<?xml version="1.0" encoding="utf-8"?>
<!-- Generator: Adobe Illustrator 21.0.2, SVG Export Plug-In . SVG Version: 6.00 Build 0)  -->
<svg version="1.1" xmlns="http://www.w3.org/2000/svg" xmlns:xlink="http://www.w3.org/1999/xlink" x="0px" y="0px"
	 viewBox="0 0 400 400" style="enable-background:new 0 0 400 400;" xml:space="preserve">
<style type="text/css">
	.st0{display:none;}
	.st1{display:inline;fill:none;stroke:#000000;stroke-width:8;stroke-miterlimit:10;}
	.st2{display:inline;fill:none;stroke:#000000;stroke-width:8;stroke-linecap:square;stroke-miterlimit:10;}
</style>
<g id="Expanded">
	<g>
		<path d="M181.8,181.8H0v-18.2C0,73.4,73.4,0,163.6,0h18.2V181.8z M37.7,145.5h107.8V37.7C89.8,45.7,45.7,89.8,37.7,145.5z"/>
	</g>
	<g>
		<path d="M181.8,400h-36.4V255.8c-61.6,8.8-109.1,62-109.1,126V400H0v-18.2c0-90.2,73.4-163.6,163.6-163.6h18.2V400z"/>
	</g>
	<g>
		<polygon points="400,181.8 218.2,181.8 218.2,0 254.5,0 254.5,145.5 363.6,145.5 363.6,0 400,0 		"/>
	</g>
	<g>
		<polygon points="400,400 363.6,400 363.6,254.5 254.5,254.5 254.5,400 218.2,400 218.2,218.2 400,218.2 		"/>
	</g>
</g>
<g id="Layer_2" class="st0">
	<path class="st1" d="M242.2,185.5h32v-32C256.5,153.5,242.2,167.8,242.2,185.5z"/>
	<path class="st2" d="M274.2,233.5v-32c-17.7,0-32,14.3-32,32"/>
	<polyline class="st2" points="322.2,153.5 322.2,185.5 290.2,185.5 290.2,153.5 	"/>
	<polyline class="st2" points="290.2,233.5 290.2,201.5 322.2,201.5 322.2,233.5 	"/>
</g>
</svg>
